# xmcd
#
# Track frame offsets:
#	150
#	14958
#	25844
#	37500
#	51209
#	61378
#	72804
#	83533
#	93163
#	102301
#	116384
#	129640
#	140181
#	153179
#	166173
#	176733
#	188920
#	199882
#	213648
#	228401
#
# Disc length: 3182 seconds
#
# Revision: 0
# Processed by: cddbd v1.5.2PL0 Copyright (c) Steve Scherf et al.
# Submitted via: dBpowerAMP V4.0
#
DISCID=110c6c14
DTITLE=George Jones - 20 Top Ten Hits
DYEAR=2007
DGENRE=Country
TTITLE0=He Stopped Loving Her Today
TTITLE1=Tender Years
TTITLE2=She Thinks I Still Care
TTITLE3=Golden Ring (With Tammy Wynette)
TTITLE4=Walk Through This World With Me
TTITLE5=White Lightning
TTITLE6=Who Shot Sam
TTITLE7=The Race Is On
TTITLE8=Love Bug
TTITLE9=A Good Year For The Roses
TTITLE10=The Window Up Above
TTITLE11=Her Name Is...
TTITLE12=When The Grass Grows Over Me
TTITLE13=Things Have Gone To Piieces
TTITLE14=Treasure Of Love
TTITLE15=Two Story House (With Tammy Wynette)
TTITLE16=Four-O-Thirty-Three
TTITLE17=She's Mine
TTITLE18=Who's Gonna Fill Their Shoes
TTITLE19=Don't Stop The Music
EXTD=
EXTT0=
EXTT1=
EXTT2=
EXTT3=
EXTT4=
EXTT5=
EXTT6=
EXTT7=
EXTT8=
EXTT9=
EXTT10=
EXTT11=
EXTT12=
EXTT13=
EXTT14=
EXTT15=
EXTT16=
EXTT17=
EXTT18=
EXTT19=
PLAYORDER=
